<svg xmlns="http://www.w3.org/2000/svg" viewBox="0 0 32 32">
  <!-- Background circle -->
  <circle cx="16" cy="16" r="15" fill="#292524"/>
  <!-- Left lens -->
  <path d="M6 16C6 19.3137 8.6863 22 12 22C15.3137 22 18 19.3137 18 16C18 12.6863 15.3137 10 12 10C8.6863 10 6 12.6863 6 16V16" stroke="#ffffff" stroke-width="2.5" fill="none"/>
  <!-- Right lens -->
  <path d="M20 16C20 19.3137 22.6863 22 26 22C29.3137 22 32 19.3137 32 16C32 12.6863 29.3137 10 26 10C22.6863 10 20 12.6863 20 16V16" stroke="#ffffff" stroke-width="2.5" fill="none"/>
  <!-- Bridge -->
  <path d="M18 16H20" stroke="#ffffff" stroke-width="2.5" stroke-linecap="round"/>
</svg>
